<?xml version="1.0" encoding="utf-8"?>
<svg width="24" height="24" viewBox="0 0 24 24" xmlns="http://www.w3.org/2000/svg">
  <path style="fill: rgb(255, 255, 255);" d="M 21.897 6.295 C 21.187 6.61 20.425 6.822 19.624 6.918 C 20.441 6.428 21.069 5.652 21.364 4.727 C 20.599 5.181 19.753 5.51 18.851 5.688 C 18.129 4.919 17.1 4.438 15.962 4.438 C 13.406 4.438 11.529 6.823 12.106 9.297 C 8.817 9.132 5.902 7.558 3.949 5.163 C 2.912 6.941 3.411 9.268 5.173 10.447 C 4.525 10.426 3.915 10.249 3.382 9.952 C 3.338 11.786 4.652 13.5 6.556 13.882 C 5.998 14.033 5.389 14.069 4.768 13.949 C 5.272 15.522 6.733 16.665 8.466 16.698 C 6.802 18.002 4.705 18.584 2.606 18.338 C 4.357 19.461 6.439 20.115 8.673 20.115 C 16.02 20.115 20.173 13.909 19.921 8.343 C 20.695 7.785 21.366 7.088 21.897 6.295 Z"/>
</svg>